<svg width="100" height="100" viewBox="0 0 100 100" fill="none" xmlns="http://www.w3.org/2000/svg">
<rect x="16" y="17.25" width="60.5" height="78" rx="4" stroke="#E1EFAF" stroke-width="2"/>
<path d="M80 10H27.5C24.7386 10 22.5 12.2386 22.5 15V50V65V70V85C22.5 87.7614 24.7386 90 27.5 90H80C82.7614 90 85 87.7614 85 85V15C85 12.2386 82.7614 10 80 10Z" fill="#1B2E3B"/>
<path d="M22.5 56V50V15C22.5 12.2386 24.7386 10 27.5 10H80C82.7614 10 85 12.2386 85 15V85C85 87.7614 82.7614 90 80 90H27.5C24.7386 90 22.5 87.7614 22.5 85V70V64" stroke="#E1EFAF" stroke-width="2" stroke-linecap="round"/>
<path d="M47.5 2.5H62.5C64.7091 2.5 66.5 4.29086 66.5 6.5V10.5H43.5V6.5C43.5 4.29086 45.2909 2.5 47.5 2.5Z" stroke="#E1EFAF" stroke-width="2"/>
<circle cx="53.75" cy="32.5" r="11.5" stroke="#E1EFAF" stroke-width="2"/>
<path d="M50 32.5L52.5 35L58.75 28.75" stroke="#E1EFAF" stroke-width="2" stroke-linecap="round" stroke-linejoin="round"/>
<path d="M32.5 73.75H45" stroke="#E1EFAF" stroke-width="2" stroke-linecap="round" stroke-linejoin="round"/>
<path d="M32.5 80H45" stroke="#E1EFAF" stroke-width="2" stroke-linecap="round" stroke-linejoin="round"/>
<path d="M51.25 73.75H75" stroke="#E1EFAF" stroke-width="2" stroke-linecap="round" stroke-linejoin="round"/>
<path d="M51.25 80H75" stroke="#E1EFAF" stroke-width="2" stroke-linecap="round" stroke-linejoin="round"/>
<path d="M38.75 61.25L43.3654 55.4881L47.25 57.6786L52.75 54.1071L58.2115 57.4881L63 54.1071L68.75 48.75" stroke="#E1EFAF" stroke-width="2" stroke-linecap="round" stroke-linejoin="round"/>
</svg>
