<svg width="100" height="100" viewBox="0 0 100 100" fill="none" xmlns="http://www.w3.org/2000/svg">
<rect x="8.72474" y="26.4295" width="55.5" height="71.75" rx="4" transform="rotate(-15 8.72474 26.4295)" fill="#1B2E3B" stroke="#C6D48E" stroke-width="2"/>
<path d="M35 83.75H87.5C90.2614 83.75 92.5 81.5114 92.5 78.75V25.5365C92.5 24.3813 92.1 23.2617 91.3679 22.368L82.7722 11.875L78.3724 5.81301C77.4317 4.51703 75.9272 3.75 74.3259 3.75H61.25H35C32.2386 3.75 30 5.98858 30 8.75V43.75V56.25V63.75V78.75C30 81.5114 32.2386 83.75 35 83.75Z" fill="#1B2E3B"/>
<path d="M40 33.75H61.25" stroke="#C6D48E" stroke-width="2" stroke-linecap="round"/>
<path d="M40 43.75H82.5" stroke="#C6D48E" stroke-width="2" stroke-linecap="round"/>
<path d="M40 53.75H82.5" stroke="#C6D48E" stroke-width="2" stroke-linecap="round"/>
<path d="M40 63.75H82.5" stroke="#C6D48E" stroke-width="2" stroke-linecap="round"/>
<path d="M40 73.75H82.5" stroke="#C6D48E" stroke-width="2" stroke-linecap="round"/>
<path d="M30.3528 48.75V43.75V8.75C30.3528 5.98858 32.5914 3.75 35.3528 3.75H61.6028H77.2278M30.3528 58.75V63.75V78.75C30.3528 81.5114 32.5914 83.75 35.3528 83.75H87.8528C90.6142 83.75 92.8528 81.5114 92.8528 78.75V43.75V25.5003C92.8528 24.3672 92.4679 23.2676 91.7611 22.3818L84.375 13.125L77.2278 3.75M77.2278 3.75V18.75C77.2278 21.5114 79.4664 23.75 82.2278 23.75H91.875" stroke="#C6D48E" stroke-width="2" stroke-linecap="round"/>
</svg>
