<svg width="24" height="24" viewBox="0 0 24 24" fill="none" xmlns="http://www.w3.org/2000/svg">
<path d="M23 12C23.5523 12 24.0043 12.4485 23.9584 12.9989C23.7895 15.0201 23.1105 16.9714 21.9776 18.6668C20.6591 20.6402 18.7849 22.1783 16.5922 23.0866C14.3995 23.9948 11.9867 24.2324 9.65892 23.7694C7.33114 23.3064 5.19295 22.1635 3.51472 20.4853C1.83649 18.8071 0.693599 16.6689 0.230577 14.3411C-0.232446 12.0133 0.00519401 9.60051 0.913446 7.4078C1.8217 5.21509 3.35977 3.34094 5.33316 2.02236C7.02859 0.889511 8.97993 0.210455 11.0011 0.0416387C11.5515 -0.00433011 12 0.447715 12 1V5C12 5.55228 11.5492 5.99151 11.0046 6.08314C10.1721 6.22319 9.37471 6.53802 8.66658 7.01118C7.67988 7.67047 6.91085 8.60754 6.45672 9.7039C6.0026 10.8003 5.88378 12.0067 6.11529 13.1705C6.3468 14.3344 6.91824 15.4035 7.75736 16.2426C8.59647 17.0818 9.66557 17.6532 10.8295 17.8847C11.9933 18.1162 13.1997 17.9974 14.2961 17.5433C15.3925 17.0892 16.3295 16.3201 16.9888 15.3334C17.462 14.6253 17.7768 13.8279 17.9169 12.9954C18.0085 12.4508 18.4477 12 19 12H23Z" fill="#E1EFAF"/>
</svg>
