<svg width="100" height="100" viewBox="0 0 100 100" fill="none" xmlns="http://www.w3.org/2000/svg">
<path d="M10 93.75H90" stroke="#C6D48E" stroke-width="2" stroke-linecap="round"/>
<path d="M20 62.25H28.75C30.9591 62.25 32.75 64.0409 32.75 66.25V94H16V66.25C16 64.0409 17.7909 62.25 20 62.25Z" stroke="#C6D48E" stroke-width="2"/>
<path d="M41.25 72.5V50C41.25 47.2386 43.4886 45 46.25 45H55C57.7614 45 60 47.2386 60 50V93.75H41.25V80" stroke="#C6D48E" stroke-width="2" stroke-linecap="round"/>
<path d="M71.25 31H80C82.2091 31 84 32.7909 84 35V94H67.25V35C67.25 32.7909 69.0409 31 71.25 31Z" stroke="#C6D48E" stroke-width="2"/>
<circle cx="10.625" cy="46.875" r="1.875" fill="#C6D48E"/>
<path d="M14.9708 41.1186C14.5531 41.4799 14.5074 42.1114 14.8686 42.5292C15.2299 42.9469 15.8614 42.9926 16.2792 42.6314L14.9708 41.1186ZM38.75 21.875L39.3355 21.0643C38.9596 20.7929 38.4465 20.8154 38.0958 21.1186L38.75 21.875ZM50 30L49.4145 30.8107C49.8049 31.0927 50.3409 31.0563 50.6897 30.7241L50 30ZM77.2497 5.02438C77.2632 4.47226 76.8265 4.01376 76.2744 4.0003L67.2771 3.78085C66.7249 3.76738 66.2664 4.20405 66.253 4.75617C66.2395 5.30829 66.6762 5.76679 67.2283 5.78026L75.2259 5.97532L75.0309 13.9729C75.0174 14.5251 75.454 14.9836 76.0062 14.997C76.5583 15.0105 77.0168 14.5738 77.0303 14.0217L77.2497 5.02438ZM16.2792 42.6314L39.4042 22.6314L38.0958 21.1186L14.9708 41.1186L16.2792 42.6314ZM38.1645 22.6857L49.4145 30.8107L50.5855 29.1893L39.3355 21.0643L38.1645 22.6857ZM50.6897 30.7241L76.9397 5.72414L75.5603 4.27586L49.3103 29.2759L50.6897 30.7241Z" fill="#C6D48E"/>
</svg>
